HIERARCHY
ROOT pelvis
{
  OFFSET 0 100 0
  CHANNELS 6 Xposition Yposition Zposition Zrotation Xrotation Yrotation
  JOINT pelvis_right_femur
  {
    OFFSET -10.78128 -3.44521 -0.5502486
    CHANNELS 3 Zrotation Xrotation Yrotation
    JOINT right_femur_tibia
    {
      OFFSET -0.8047443 -44.0398 -0.1307829
      CHANNELS 3 Zrotation Xrotation Yrotation
      JOINT right_tibia_foot
      {
        OFFSET 3.006224 -47.83518 -5
        CHANNELS 3 Zrotation Xrotation Yrotation
        End Site
        {
          OFFSET 0 -5 15
        }
      }
    }
  }
  JOINT pelvis_left_femur
  {
    OFFSET 10.78128 -3.44521 -0.5502486
    CHANNELS 3 Zrotation Xrotation Yrotation
    JOINT left_femur_tibia
    {
      OFFSET 0.8047443 -44.0398 -0.1307829
      CHANNELS 3 Zrotation Xrotation Yrotation
      JOINT left_tibia_foot
      {
        OFFSET -4.370144 -48.10324 -4.275266
        CHANNELS 3 Zrotation Xrotation Yrotation
        End Site
        {
          OFFSET 0 -5 15
        }
      }
    }
  }
  JOINT pelvis_spine1
  {
    OFFSET 0 6.468898 -3.129235
    CHANNELS 3 Zrotation Xrotation Yrotation
    JOINT spine1
    {
      OFFSET 0 23.15396 4.99043
      CHANNELS 3 Zrotation Xrotation Yrotation
      JOINT spine2
      {
        OFFSET 0 20.79997 -5.064912
        CHANNELS 3 Zrotation Xrotation Yrotation
        JOINT neck
        {
          OFFSET 0 14.38658 9.616178
          CHANNELS 3 Zrotation Xrotation Yrotation
          End Site
          {
            OFFSET 0 20 0
          }
        }
      }
      JOINT right_manubrium
      {
        OFFSET -5.722621 16.35077 3.967754
        CHANNELS 3 Zrotation Xrotation Yrotation
        JOINT right_clavicle
        {
          OFFSET -13.16364 1.694482 -4.693211
          CHANNELS 3 Zrotation Xrotation Yrotation
          JOINT right_humerus
          {
            OFFSET -28.5034 -0.3100689 -2.792744
            CHANNELS 3 Zrotation Xrotation Yrotation
            JOINT right_radius
            {
              OFFSET -25.15693 0.02248979 -1.271978
              CHANNELS 3 Zrotation Xrotation Yrotation
              End Site
              {
                OFFSET -15 0 0
              }
            }
          }
        }
      }
      JOINT left_manubrium
      {
        OFFSET 5.722621 16.35077 3.967754
        CHANNELS 3 Zrotation Xrotation Yrotation
        JOINT left_clavicle
        {
          OFFSET 13.16364 1.694482 -4.693211
          CHANNELS 3 Zrotation Xrotation Yrotation
          JOINT left_humerus
          {
            OFFSET 29.39168 -1.063119 -2.237045
            CHANNELS 3 Zrotation Xrotation Yrotation
            JOINT left_radius
            {
              OFFSET 24.59957 -0.9528479 0.9047498
              CHANNELS 3 Zrotation Xrotation Yrotation
              End Site
              {
                OFFSET 15 -0 -0
              }
            }
          }
        }
      }
    }
  }
}
MOTION
Frames: 11
Frame Time: 0.0416666666667
0 103.5113 0 1.826242 -1.050172 0.07940149 3.58766 -15.14217 11.86508 -0 38.82267 -0 -3.779511 -16.76696 -3.665212 -8.181965 8.783221 -21.86061 -0 4.998707 -0 20.71876 -8.470138 29.2569 -2.807573 -2.444204 5.040041 2.781325 10.48667 -7.187339 1.767377 21.27182 6.111696 2.637582 -25.09918 9.568708 6.103587 -19.25197 11.72324 85.12731 38.10329 -17.27638 -0 0 14.20546 -6.68814 9.015974 4.859204 5.947275 -19.96912 -1.443526 -91.05135 21.57882 19.81425 0 0 -18.18692 14.39381 13.39259 -2.436217
0.4915953 103.5368 1.821814 1.684403 -0.2806918 0.08386989 4.230149 -17.88638 12.31324 -0 38.40695 -0 -3.643669 -16.34697 -3.377767 -8.29064 9.443855 -22.36497 -0 5.010201 -0 21.73686 -8.592416 30.00254 -2.795775 -2.401593 4.994256 2.89699 10.52156 -7.234221 1.752738 21.24271 6.132757 2.578456 -25.28842 9.643726 6.037688 -19.24822 11.76655 85.3557 38.23026 -17.54962 -0 0 13.90567 -6.35493 8.894432 4.850081 5.839542 -19.94638 -1.627475 -90.8342 21.62766 19.67428 0 0 -18.94383 14.56445 13.03007 -2.477052
0.8230893 103.1631 3.664598 1.762273 0.8446723 0.1668826 4.263589 -21.42736 8.901135 -0 31.18485 -0 -4.173401 -14.41736 -2.444219 -8.363755 10.24994 -21.51935 -0 3.733526 -0 17.80182 -13.49016 28.23397 -2.75741 -2.007072 4.920471 2.628632 10.57498 -7.011273 1.575782 21.41222 6.289322 2.835279 -24.50237 9.237713 6.091195 -18.79465 11.8914 85.19986 38.25497 -17.06226 -0 0 13.05428 -7.819023 9.242763 5.755928 5.713608 -19.97107 -1.841021 -90.06346 21.16461 18.86167 0 0 -18.79276 14.06298 12.40374 -2.203233
1.077149 102.7322 5.458171 1.631979 2.312438 0.3064524 4.691113 -24.88945 8.658449 -0 28.896 -0 -3.722417 -14.01228 -2.15889 -8.547514 11.25178 -21.71132 -0 3.015666 -0 16.57332 -15.87488 27.94426 -2.727252 -1.894837 4.877463 2.610673 10.59333 -6.98746 1.525369 21.44267 6.32818 2.873109 -24.37488 9.151349 6.07338 -18.66162 11.93026 85.26811 38.21261 -17.09933 -0 0 12.73515 -8.093074 9.291115 5.973484 5.641163 -19.97812 -1.961826 -89.82955 21.11626 18.62708 0 0 -18.96322 13.89558 12.14443 -2.033956
1.274912 102.2011 7.377433 1.330626 3.779263 0.514019 5.379386 -29.11105 8.324715 -0 25.77427 -0 -3.431044 -12.77818 -1.685105 -8.570417 12.2444 -21.51267 -0 2.741234 -0 15.65162 -18.02461 27.44878 -2.740738 -1.893755 4.865419 2.636595 10.60299 -7.004808 1.524762 21.4266 6.352878 2.861922 -24.4268 9.20051 6.049699 -18.68142 11.93614 85.35916 38.29718 -17.19353 -0 0 12.63701 -7.957487 9.24813 5.942201 5.648324 -19.99417 -2.002568 -89.71286 21.08975 18.52299 0 0 -19.31192 14.06063 12.01558 -2.168074
1.442817 101.5842 9.540472 0.9092639 5.252772 0.8031898 6.242183 -33.36541 8.286307 -0 22.56003 -0 -3.149813 -11.32617 -1.240201 -8.507256 13.14455 -21.1226 -0 2.85516 -0 14.87892 -19.8707 26.90878 -2.743649 -1.946106 4.851653 2.738868 10.61446 -7.080289 1.539154 21.36683 6.365713 2.800109 -24.66657 9.327315 5.999169 -18.76699 11.93538 85.5598 38.39633 -17.48075 -0 0 12.58889 -7.527987 9.130943 5.771163 5.643824 -20.01416 -2.060456 -89.67209 21.15882 18.53307 0 0 -19.87119 14.30176 11.88591 -2.300598
1.617034 100.8695 12.1688 0.308353 6.342401 1.212626 7.228443 -37.15621 8.165362 -0 19.14084 -0 -3.293996 -9.297974 -0.7564272 -8.21733 13.95334 -20.37646 -0 3.877952 -0 13.89543 -21.25477 26.08943 -2.751297 -2.022547 4.839711 2.869188 10.62596 -7.175808 1.559353 21.28533 6.391178 2.721526 -24.98931 9.508236 5.927108 -18.8952 11.93028 85.82353 38.55087 -17.84726 -0 0 12.54254 -6.951954 8.967419 5.541221 5.649516 -20.04279 -2.128873 -89.61994 21.23866 18.55444 0 0 -20.63607 14.65656 11.71415 -2.509462
1.834164 100.1056 15.44394 -0.5105424 6.648053 1.793084 8.182014 -39.33947 7.847176 -0 16.57711 -0 -4.144007 -7.089753 -0.3721636 -7.548916 14.65235 -19.44641 -0 6.142808 -0 11.80241 -22.13063 24.62116 -2.748083 -2.090023 4.815238 3.020862 10.64003 -7.287911 1.563679 21.18583 6.454597 2.644755 -25.36237 9.721184 5.820631 -19.02475 11.93077 86.19606 38.74653 -18.33384 -0 0 12.38632 -6.331166 8.773546 5.32661 5.649527 -20.0947 -2.247182 -89.47689 21.31227 18.51251 0 0 -21.69022 15.06635 11.40392 -2.728497
2.125189 99.41862 19.46104 -1.502629 5.844435 2.56066 8.810122 -38.89185 6.878321 -0 15.77493 -0 -5.854607 -4.926035 -0.1285096 -6.389592 15.1127 -18.34219 -0 9.906657 -0 7.814379 -22.26489 21.77576 -2.725964 -2.119256 4.769961 3.160012 10.65347 -7.401542 1.531484 21.07997 6.581462 2.604525 -25.70198 9.927091 5.683881 -19.11019 11.94067 86.67766 38.95769 -18.92122 -0 0 12.04603 -5.842324 8.596498 5.209853 5.654213 -20.19407 -2.419255 -89.17738 21.33585 18.32578 0 0 -22.99499 15.46137 10.91709 -2.915503
2.489897 98.96383 24.24987 -2.303183 4.303823 3.403423 8.696468 -36.08834 4.7316 -0 15.7715 -0 -7.758826 -2.420362 -0.02046072 -5.045157 15.2446 -16.5555 -0 15.16182 -0 2.355161 -21.24207 17.04566 -2.667545 -2.082573 4.695796 3.25346 10.66401 -7.501259 1.456163 20.9933 6.744109 2.621171 -25.90051 10.04088 5.548929 -19.08267 11.96179 87.19244 39.04991 -19.53903 -0 0 11.53531 -5.699336 8.509259 5.256939 5.64866 -20.33373 -2.62542 -88.77387 21.32178 18.00249 0 0 -24.18618 15.61807 10.34627 -2.900011
2.875919 98.87288 29.87894 -2.561273 2.900419 4.111282 8.061726 -32.47192 2.315115 -0 14.9179 -0 -8.669888 0.5415935 -0.3195746 -4.055649 15.19499 -13.69656 -0 22.36226 -0 -2.320964 -18.41372 11.79164 -2.577651 -1.962575 4.60453 3.268078 10.68026 -7.551914 1.3647 20.97211 6.847487 2.683151 -25.83519 9.960063 5.480002 -18.89518 11.99645 87.5271 38.88483 -19.95646 -0 0 11.01357 -6.043423 8.574803 5.486184 5.592755 -20.44159 -2.813694 -88.42963 21.30573 17.65062 0 0 -24.64368 15.31186 9.91554 -2.536935
